<svg xmlns="http://www.w3.org/2000/svg" viewBox="0 0 16 16"><path d="M11,12v-11c0,-0.552246 -0.447754,-1 -1,-1h-6c-0.265137,0 -0.519531,0.105469 -0.707031,0.292969l-3,3c-0.1875,0.1875 -0.292969,0.441895 -0.292969,0.707031v8c0,0.552734 0.447754,1 1,1h9c0.552246,0 1,-0.447266 1,-1Zm-7,-9c0,0.552246 -0.447693,1 -1,1h-2l3,-3v2Z" transform="translate(1)"/><path d="M10,0h-1v9c0,1.10303 -0.896973,2 -2,2h-7v1c0,0.552734 0.447754,1 1,1h9c0.552246,0 1,-0.447266 1,-1v-11c0,-0.552246 -0.447754,-1 -1,-1Z" transform="translate(4 3)"/></svg>